<svg width="60" height="60" viewBox="0 0 60 60" fill="none" xmlns="http://www.w3.org/2000/svg">
<circle cx="30" cy="30" r="30" fill="#ECF5FF"/>
<path d="M31.969 42H29.0625C28.786 42 28.5625 42.224 28.5625 42.5C28.5625 42.776 28.786 43 29.0625 43H31.969C32.2449 43 32.4685 42.776 32.4685 42.5C32.4685 42.224 32.245 42 31.969 42Z" fill="#F22225"/>
<path d="M21.9999 32C21.9999 31.724 21.7765 31.5 21.5 31.5C21.2235 31.5 21 31.724 21 32C20.7235 32 20.5 32.224 20.5 32.5C20.5 32.7759 20.7235 32.9999 21 32.9999C21 33.2759 21.2235 33.4999 21.5 33.4999C21.7765 33.4999 21.9999 33.2759 21.9999 32.9999C22.2764 32.9999 22.4999 32.7759 22.4999 32.5C22.4999 32.224 22.2764 32 21.9999 32Z" fill="#F22225"/>
<path d="M35.485 40.3785C35.429 40.156 35.2295 40 35 40H26C25.7705 40 25.571 40.156 25.5151 40.3785L24.515 44.3785C24.4775 44.5281 24.511 44.6866 24.606 44.8076C24.7005 44.9291 24.846 45 25 45H36C36.154 45 36.2995 44.929 36.394 44.8076C36.489 44.6866 36.5225 44.5281 36.485 44.3785L35.485 40.3785ZM25.6405 44L26.3905 41H34.6095L35.3595 44H25.6405Z" fill="#F22225"/>
<path d="M19.4999 22H18.9999V21.5C18.9999 21.224 18.7764 21 18.4999 21C18.2234 21 18 21.224 18 21.5V22H17.5C17.2235 22 17 22.224 17 22.4999C17 22.7759 17.2235 22.9999 17.5 22.9999H17.9999V23.4999C17.9999 23.7759 18.2234 23.9999 18.4999 23.9999C18.7764 23.9999 18.9999 23.7759 18.9999 23.4999V22.9999H19.4999C19.7764 22.9999 19.9999 22.7759 19.9999 22.4999C19.9999 22.224 19.7764 22 19.4999 22Z" fill="#F22225"/>
<path d="M36.5 19H32.952L30.9405 15.263C30.7654 14.939 30.2345 14.939 30.0595 15.263L28.0479 19H24.4999C24.2984 19 24.1159 19.1216 24.0384 19.3075C23.9609 19.4935 24.0029 19.7085 24.1444 19.852L27.1684 22.9065L25.5309 27.3266C25.4584 27.5225 25.5154 27.743 25.6744 27.8796C25.7669 27.9591 25.8834 28.0001 25.9999 28.0001C26.0829 28.0001 26.1669 27.9791 26.2424 27.9371L30.4999 25.5721L34.7574 27.9371C34.9384 28.0381 35.1644 28.0161 35.3234 27.8811C35.4824 27.7466 35.5409 27.5276 35.4704 27.3316L33.8734 22.8771L36.8559 19.8511C36.9974 19.7076 37.0389 19.4931 36.9614 19.3071C36.8835 19.121 36.7015 19 36.5 19ZM32.941 22.399C32.8055 22.536 32.761 22.738 32.826 22.9185L34.0805 26.417L30.7425 24.563C30.6675 24.521 30.5835 24.5 30.5 24.5C30.4165 24.5 30.3324 24.521 30.2574 24.563L26.9379 26.4065L28.2169 22.9549C28.2844 22.7724 28.2399 22.5675 28.1034 22.4294L25.6979 19.9999H28.3464C28.5309 19.9999 28.6994 19.8989 28.7869 19.7368L30.4999 16.5549L32.2129 19.7368C32.3004 19.8989 32.4689 19.9999 32.6534 19.9999H35.3049L32.941 22.399Z" fill="#F22225"/>
<path d="M42.4999 17H40.9999V15.5C40.9999 15.224 40.7765 15 40.5 15C40.2235 15 40 15.224 40 15.5V17H38.5C38.2235 17 38 17.224 38 17.5C38 17.7759 38.2235 17.9999 38.5 17.9999H40V19.4999C40 19.7759 40.2235 19.9999 40.5 19.9999C40.7765 19.9999 40.9999 19.7759 40.9999 19.4999V18H42.4999C42.7764 18 42.9999 17.776 42.9999 17.5C43 17.224 42.7764 17 42.4999 17Z" fill="#F22225"/>
<path d="M29.0005 39C29.252 39 29.469 38.811 29.497 38.555C29.502 38.51 30.0001 33.9875 30.0001 30.5V27.5C30.0001 27.224 29.7766 27 29.5001 27C29.2236 27 29.0001 27.224 29.0001 27.5V30.5C29.0001 33.931 28.5081 38.4 28.5031 38.445C28.4726 38.719 28.6706 38.9665 28.9451 38.997C28.9635 38.999 28.982 39 29.0005 39Z" fill="#F22225"/>
<path d="M31.5 27C31.2235 27 31 27.224 31 27.5V30.5C31 33.9875 31.498 38.51 31.503 38.555C31.5315 38.811 31.748 39 31.9996 39C32.0175 39 32.0365 38.999 32.055 38.997C32.3296 38.9665 32.5275 38.719 32.497 38.445C32.492 38.4 32 33.931 32 30.5V27.5C32 27.224 31.7765 27 31.5 27Z" fill="#F22225"/>
</svg>
