<svg width="60" height="60" viewBox="0 0 60 60" fill="none" xmlns="http://www.w3.org/2000/svg">
<circle cx="30" cy="30" r="30" fill="#ECF5FF"/>
<path fill-rule="evenodd" clip-rule="evenodd" d="M29.9998 18.125C28.5297 18.1246 27.0981 18.5954 25.9153 19.4683C24.7324 20.3413 23.8605 21.5705 23.4276 22.9754C22.9946 24.3803 23.0235 25.887 23.5098 27.2744C23.9962 28.6617 24.9144 29.8567 26.1298 30.6838C24.0204 31.4574 22.1909 32.8446 20.8765 34.6669C19.5622 36.4891 18.8233 38.663 18.7548 40.9087C18.7474 41.1574 18.839 41.3988 19.0095 41.5799C19.1801 41.761 19.4156 41.8669 19.6642 41.8744C19.9128 41.8818 20.1543 41.7902 20.3353 41.6197C20.5164 41.4491 20.6224 41.2136 20.6298 40.965C20.7043 38.5293 21.7241 36.2183 23.4734 34.5218C25.2226 32.8252 27.5636 31.8764 30.0004 31.8764C32.4373 31.8764 34.7783 32.8252 36.5275 34.5218C38.2767 36.2183 39.2966 38.5293 39.3711 40.965C39.372 41.0898 39.3979 41.2132 39.4472 41.3279C39.4964 41.4426 39.5681 41.5463 39.658 41.6329C39.7479 41.7195 39.8541 41.7873 39.9706 41.8323C40.087 41.8773 40.2113 41.8986 40.336 41.895C40.4608 41.8913 40.5836 41.8628 40.6972 41.811C40.8108 41.7593 40.9129 41.6853 40.9976 41.5936C41.0822 41.5019 41.1477 41.3941 41.1901 41.2767C41.2326 41.1593 41.2512 41.0347 41.2448 40.91C41.1766 38.664 40.4378 36.4899 39.1235 34.6674C37.8091 32.8449 35.9794 31.4575 33.8698 30.6838C35.0852 29.8567 36.0035 28.6617 36.4898 27.2744C36.9762 25.887 37.005 24.3803 36.5721 22.9754C36.1391 21.5705 35.2672 20.3413 34.0844 19.4683C32.9015 18.5954 31.4699 18.1246 29.9998 18.125ZM24.9998 25C24.9998 23.6739 25.5266 22.4021 26.4643 21.4645C27.402 20.5268 28.6737 20 29.9998 20C31.3259 20 32.5977 20.5268 33.5354 21.4645C34.473 22.4021 34.9998 23.6739 34.9998 25C34.9998 26.3261 34.473 27.5979 33.5354 28.5355C32.5977 29.4732 31.3259 30 29.9998 30C28.6737 30 27.402 29.4732 26.4643 28.5355C25.5266 27.5979 24.9998 26.3261 24.9998 25Z" fill="#F22225"/>
</svg>
