<svg width="143" height="19" viewBox="0 0 143 19" fill="none" xmlns="http://www.w3.org/2000/svg">
<path d="M53.2784 15V3.36364H55.0341V8.42045H60.8352V3.36364H62.5966V15H60.8352V9.92614H55.0341V15H53.2784ZM69.0984 15.1761C68.2386 15.1761 67.498 14.9924 66.8768 14.625C66.2594 14.2538 65.7821 13.733 65.445 13.0625C65.1117 12.3883 64.945 11.5985 64.945 10.6932C64.945 9.79924 65.1117 9.01136 65.445 8.32955C65.7821 7.64773 66.2518 7.11553 66.8541 6.73295C67.4602 6.35038 68.1685 6.15909 68.9791 6.15909C69.4715 6.15909 69.9488 6.24053 70.4109 6.40341C70.873 6.56629 71.2878 6.82197 71.6552 7.17045C72.0227 7.51894 72.3124 7.97159 72.5245 8.52841C72.7367 9.08144 72.8427 9.75379 72.8427 10.5455V11.1477H65.9052V9.875H71.178C71.178 9.42803 71.087 9.0322 70.9052 8.6875C70.7234 8.33902 70.4677 8.06439 70.1382 7.86364C69.8124 7.66288 69.4298 7.5625 68.9905 7.5625C68.5132 7.5625 68.0965 7.67992 67.7405 7.91477C67.3882 8.14583 67.1155 8.44886 66.9223 8.82386C66.7329 9.19508 66.6382 9.59848 66.6382 10.0341V11.0284C66.6382 11.6117 66.7405 12.108 66.945 12.517C67.1533 12.9261 67.4431 13.2386 67.8143 13.4545C68.1855 13.6667 68.6192 13.7727 69.1155 13.7727C69.4374 13.7727 69.731 13.7273 69.9961 13.6364C70.2613 13.5417 70.4905 13.4015 70.6836 13.2159C70.8768 13.0303 71.0245 12.8011 71.1268 12.5284L72.7348 12.8182C72.606 13.2917 72.3749 13.7064 72.0416 14.0625C71.712 14.4148 71.2973 14.6894 70.7973 14.8864C70.3011 15.0795 69.7348 15.1761 69.0984 15.1761ZM76.7465 3.36364V15H75.0477V3.36364H76.7465ZM81.0509 3.36364V15H79.352V3.36364H81.0509ZM87.3326 15.1761C86.5144 15.1761 85.8004 14.9886 85.1905 14.6136C84.5807 14.2386 84.1072 13.714 83.7701 13.0398C83.4329 12.3655 83.2644 11.5777 83.2644 10.6761C83.2644 9.77083 83.4329 8.97917 83.7701 8.30114C84.1072 7.62311 84.5807 7.09659 85.1905 6.72159C85.8004 6.34659 86.5144 6.15909 87.3326 6.15909C88.1507 6.15909 88.8648 6.34659 89.4746 6.72159C90.0845 7.09659 90.5579 7.62311 90.8951 8.30114C91.2322 8.97917 91.4007 9.77083 91.4007 10.6761C91.4007 11.5777 91.2322 12.3655 90.8951 13.0398C90.5579 13.714 90.0845 14.2386 89.4746 14.6136C88.8648 14.9886 88.1507 15.1761 87.3326 15.1761ZM87.3382 13.75C87.8685 13.75 88.3079 13.6098 88.6564 13.3295C89.0049 13.0492 89.2625 12.6761 89.4291 12.2102C89.5996 11.7443 89.6848 11.2311 89.6848 10.6705C89.6848 10.1136 89.5996 9.60227 89.4291 9.13636C89.2625 8.66667 89.0049 8.28977 88.6564 8.00568C88.3079 7.72159 87.8685 7.57955 87.3382 7.57955C86.8041 7.57955 86.361 7.72159 86.0087 8.00568C85.6602 8.28977 85.4007 8.66667 85.2303 9.13636C85.0636 9.60227 84.9803 10.1136 84.9803 10.6705C84.9803 11.2311 85.0636 11.7443 85.2303 12.2102C85.4007 12.6761 85.6602 13.0492 86.0087 13.3295C86.361 13.6098 86.8041 13.75 87.3382 13.75Z" fill="#25282B"/>
<path d="M97.7339 4.875V3.36364H106.74V4.875H103.109V15H101.359V4.875H97.7339ZM110.612 9.81818V15H108.913V3.36364H110.589V7.69318H110.697C110.902 7.22348 111.214 6.85038 111.635 6.57386C112.055 6.29735 112.605 6.15909 113.283 6.15909C113.881 6.15909 114.404 6.2822 114.851 6.52841C115.302 6.77462 115.65 7.14205 115.896 7.63068C116.146 8.11553 116.271 8.72159 116.271 9.44886V15H114.572V9.65341C114.572 9.01326 114.408 8.51705 114.078 8.16477C113.749 7.80871 113.29 7.63068 112.703 7.63068C112.302 7.63068 111.942 7.71591 111.624 7.88636C111.309 8.05682 111.061 8.30682 110.879 8.63636C110.701 8.96212 110.612 9.35606 110.612 9.81818ZM122.62 15.1761C121.76 15.1761 121.019 14.9924 120.398 14.625C119.781 14.2538 119.303 13.733 118.966 13.0625C118.633 12.3883 118.466 11.5985 118.466 10.6932C118.466 9.79924 118.633 9.01136 118.966 8.32955C119.303 7.64773 119.773 7.11553 120.375 6.73295C120.981 6.35038 121.69 6.15909 122.5 6.15909C122.993 6.15909 123.47 6.24053 123.932 6.40341C124.394 6.56629 124.809 6.82197 125.176 7.17045C125.544 7.51894 125.834 7.97159 126.046 8.52841C126.258 9.08144 126.364 9.75379 126.364 10.5455V11.1477H119.426V9.875H124.699C124.699 9.42803 124.608 9.0322 124.426 8.6875C124.245 8.33902 123.989 8.06439 123.659 7.86364C123.334 7.66288 122.951 7.5625 122.512 7.5625C122.034 7.5625 121.618 7.67992 121.262 7.91477C120.909 8.14583 120.637 8.44886 120.444 8.82386C120.254 9.19508 120.159 9.59848 120.159 10.0341V11.0284C120.159 11.6117 120.262 12.108 120.466 12.517C120.675 12.9261 120.964 13.2386 121.336 13.4545C121.707 13.6667 122.14 13.7727 122.637 13.7727C122.959 13.7727 123.252 13.7273 123.517 13.6364C123.783 13.5417 124.012 13.4015 124.205 13.2159C124.398 13.0303 124.546 12.8011 124.648 12.5284L126.256 12.8182C126.127 13.2917 125.896 13.7064 125.563 14.0625C125.233 14.4148 124.819 14.6894 124.319 14.8864C123.822 15.0795 123.256 15.1761 122.62 15.1761ZM128.569 15V6.27273H130.211V7.65909H130.302C130.461 7.18939 130.741 6.82008 131.143 6.55114C131.548 6.27841 132.006 6.14205 132.518 6.14205C132.624 6.14205 132.749 6.14583 132.893 6.15341C133.041 6.16098 133.156 6.17045 133.239 6.18182V7.80682C133.171 7.78788 133.05 7.76705 132.876 7.74432C132.701 7.7178 132.527 7.70455 132.353 7.70455C131.951 7.70455 131.594 7.78977 131.279 7.96023C130.969 8.12689 130.722 8.35985 130.541 8.65909C130.359 8.95455 130.268 9.29167 130.268 9.67045V15H128.569ZM138.478 15.1761C137.619 15.1761 136.878 14.9924 136.257 14.625C135.639 14.2538 135.162 13.733 134.825 13.0625C134.492 12.3883 134.325 11.5985 134.325 10.6932C134.325 9.79924 134.492 9.01136 134.825 8.32955C135.162 7.64773 135.632 7.11553 136.234 6.73295C136.84 6.35038 137.548 6.15909 138.359 6.15909C138.852 6.15909 139.329 6.24053 139.791 6.40341C140.253 6.56629 140.668 6.82197 141.035 7.17045C141.403 7.51894 141.692 7.97159 141.905 8.52841C142.117 9.08144 142.223 9.75379 142.223 10.5455V11.1477H135.285V9.875H140.558C140.558 9.42803 140.467 9.0322 140.285 8.6875C140.103 8.33902 139.848 8.06439 139.518 7.86364C139.192 7.66288 138.81 7.5625 138.37 7.5625C137.893 7.5625 137.477 7.67992 137.12 7.91477C136.768 8.14583 136.495 8.44886 136.302 8.82386C136.113 9.19508 136.018 9.59848 136.018 10.0341V11.0284C136.018 11.6117 136.12 12.108 136.325 12.517C136.533 12.9261 136.823 13.2386 137.194 13.4545C137.566 13.6667 137.999 13.7727 138.495 13.7727C138.817 13.7727 139.111 13.7273 139.376 13.6364C139.641 13.5417 139.87 13.4015 140.064 13.2159C140.257 13.0303 140.405 12.8011 140.507 12.5284L142.115 12.8182C141.986 13.2917 141.755 13.7064 141.422 14.0625C141.092 14.4148 140.677 14.6894 140.177 14.8864C139.681 15.0795 139.115 15.1761 138.478 15.1761Z" fill="#F22225"/>
<path d="M42.8868 9L40 6.11325L37.1132 9L40 11.8868L42.8868 9ZM0 9.5H40V8.5H0V9.5Z" fill="#F22225"/>
<circle cx="40" cy="9" r="3" fill="#F22225"/>
</svg>
