<svg width="150" height="19" viewBox="0 0 150 19" fill="none" xmlns="http://www.w3.org/2000/svg">
<path d="M53.2784 3.36364H55.4091L59.1136 12.4091H59.25L62.9545 3.36364H65.0852V15H63.4148V6.57955H63.3068L59.875 14.983H58.4886L55.0568 6.57386H54.9489V15H53.2784V3.36364ZM68.8953 18.2727C68.6415 18.2727 68.4104 18.2519 68.2021 18.2102C67.9938 18.1723 67.8385 18.1307 67.7362 18.0852L68.1453 16.6932C68.4559 16.7765 68.7324 16.8125 68.9748 16.8011C69.2173 16.7898 69.4313 16.6989 69.6169 16.5284C69.8063 16.358 69.9729 16.0795 70.1169 15.6932L70.3271 15.1136L67.1339 6.27273H68.9521L71.1623 13.0455H71.2532L73.4635 6.27273H75.2873L71.6907 16.1648C71.5241 16.6193 71.312 17.0038 71.0544 17.3182C70.7968 17.6364 70.49 17.875 70.1339 18.0341C69.7779 18.1932 69.365 18.2727 68.8953 18.2727Z" fill="#25282B"/>
<path d="M88.2412 6.42045C88.1806 5.88258 87.9306 5.46591 87.4912 5.17045C87.0519 4.87121 86.4988 4.72159 85.8322 4.72159C85.3549 4.72159 84.942 4.79735 84.5935 4.94886C84.245 5.09659 83.9742 5.30114 83.781 5.5625C83.5916 5.82008 83.4969 6.11364 83.4969 6.44318C83.4969 6.7197 83.5613 6.95833 83.6901 7.15909C83.8227 7.35985 83.995 7.52841 84.2072 7.66477C84.4231 7.79735 84.6541 7.90909 84.9003 8C85.1466 8.08712 85.3833 8.15909 85.6106 8.21591L86.7469 8.51136C87.1181 8.60227 87.4988 8.72538 87.889 8.88068C88.2791 9.03598 88.6409 9.24053 88.9742 9.49432C89.3075 9.74811 89.5765 10.0625 89.781 10.4375C89.9894 10.8125 90.0935 11.2614 90.0935 11.7841C90.0935 12.4432 89.9231 13.0284 89.5822 13.5398C89.245 14.0511 88.7545 14.4545 88.1106 14.75C87.4704 15.0455 86.6958 15.1932 85.7867 15.1932C84.9155 15.1932 84.1617 15.0549 83.5253 14.7784C82.889 14.5019 82.3909 14.1098 82.031 13.6023C81.6712 13.0909 81.4723 12.4848 81.4344 11.7841H83.1958C83.2299 12.2045 83.3662 12.5549 83.6049 12.8352C83.8473 13.1117 84.156 13.3182 84.531 13.4545C84.9098 13.5871 85.3246 13.6534 85.7753 13.6534C86.2716 13.6534 86.7128 13.5758 87.0992 13.4205C87.4894 13.2614 87.7962 13.0417 88.0197 12.7614C88.2431 12.4773 88.3549 12.1458 88.3549 11.767C88.3549 11.4223 88.2564 11.1402 88.0594 10.9205C87.8662 10.7008 87.603 10.5189 87.2697 10.375C86.9401 10.2311 86.567 10.1042 86.1503 9.99432L84.7753 9.61932C83.8435 9.36553 83.1049 8.99242 82.5594 8.5C82.0178 8.00758 81.7469 7.35606 81.7469 6.54545C81.7469 5.875 81.9287 5.28977 82.2924 4.78977C82.656 4.28977 83.1484 3.90151 83.7697 3.625C84.3909 3.3447 85.0916 3.20455 85.8719 3.20455C86.6598 3.20455 87.3549 3.3428 87.9572 3.61932C88.5632 3.89583 89.0405 4.27652 89.389 4.76136C89.7375 5.24242 89.9193 5.79545 89.9344 6.42045H88.2412ZM96.1365 15.1761C95.2767 15.1761 94.5362 14.9924 93.9149 14.625C93.2975 14.2538 92.8202 13.733 92.4831 13.0625C92.1498 12.3883 91.9831 11.5985 91.9831 10.6932C91.9831 9.79924 92.1498 9.01136 92.4831 8.32955C92.8202 7.64773 93.2899 7.11553 93.8922 6.73295C94.4983 6.35038 95.2066 6.15909 96.0172 6.15909C96.5096 6.15909 96.9869 6.24053 97.449 6.40341C97.9112 6.56629 98.3259 6.82197 98.6934 7.17045C99.0608 7.51894 99.3505 7.97159 99.5627 8.52841C99.7748 9.08144 99.8809 9.75379 99.8809 10.5455V11.1477H92.9434V9.875H98.2161C98.2161 9.42803 98.1252 9.0322 97.9434 8.6875C97.7615 8.33902 97.5059 8.06439 97.1763 7.86364C96.8505 7.66288 96.468 7.5625 96.0286 7.5625C95.5513 7.5625 95.1346 7.67992 94.7786 7.91477C94.4263 8.14583 94.1536 8.44886 93.9604 8.82386C93.771 9.19508 93.6763 9.59848 93.6763 10.0341V11.0284C93.6763 11.6117 93.7786 12.108 93.9831 12.517C94.1915 12.9261 94.4812 13.2386 94.8524 13.4545C95.2237 13.6667 95.6574 13.7727 96.1536 13.7727C96.4755 13.7727 96.7691 13.7273 97.0343 13.6364C97.2994 13.5417 97.5286 13.4015 97.7218 13.2159C97.9149 13.0303 98.0627 12.8011 98.1649 12.5284L99.7729 12.8182C99.6441 13.2917 99.413 13.7064 99.0797 14.0625C98.7502 14.4148 98.3354 14.6894 97.8354 14.8864C97.3392 15.0795 96.7729 15.1761 96.1365 15.1761ZM102.086 15V6.27273H103.728V7.65909H103.819C103.978 7.18939 104.258 6.82008 104.66 6.55114C105.065 6.27841 105.523 6.14205 106.035 6.14205C106.141 6.14205 106.266 6.14583 106.41 6.15341C106.557 6.16098 106.673 6.17045 106.756 6.18182V7.80682C106.688 7.78788 106.567 7.76705 106.393 7.74432C106.218 7.7178 106.044 7.70455 105.87 7.70455C105.468 7.70455 105.11 7.78977 104.796 7.96023C104.485 8.12689 104.239 8.35985 104.057 8.65909C103.876 8.95455 103.785 9.29167 103.785 9.67045V15H102.086ZM116.278 6.27273L113.113 15H111.295L108.125 6.27273H109.948L112.159 12.9886H112.25L114.454 6.27273H116.278ZM118.195 15V6.27273H119.893V15H118.195ZM119.052 4.92614C118.757 4.92614 118.503 4.82765 118.291 4.63068C118.083 4.42992 117.979 4.19129 117.979 3.91477C117.979 3.63447 118.083 3.39583 118.291 3.19886C118.503 2.99811 118.757 2.89773 119.052 2.89773C119.348 2.89773 119.6 2.99811 119.808 3.19886C120.02 3.39583 120.126 3.63447 120.126 3.91477C120.126 4.19129 120.02 4.42992 119.808 4.63068C119.6 4.82765 119.348 4.92614 119.052 4.92614ZM126.175 15.1761C125.33 15.1761 124.603 14.9848 123.993 14.6023C123.387 14.2159 122.921 13.6837 122.596 13.0057C122.27 12.3277 122.107 11.5511 122.107 10.6761C122.107 9.78977 122.274 9.00758 122.607 8.32955C122.94 7.64773 123.41 7.11553 124.016 6.73295C124.622 6.35038 125.336 6.15909 126.158 6.15909C126.821 6.15909 127.412 6.2822 127.931 6.52841C128.45 6.77083 128.868 7.11174 129.186 7.55114C129.508 7.99053 129.7 8.50379 129.76 9.09091H128.107C128.016 8.68182 127.808 8.32955 127.482 8.03409C127.16 7.73864 126.728 7.59091 126.186 7.59091C125.713 7.59091 125.298 7.71591 124.942 7.96591C124.59 8.21212 124.315 8.56439 124.118 9.02273C123.921 9.47727 123.823 10.0152 123.823 10.6364C123.823 11.2727 123.919 11.822 124.113 12.2841C124.306 12.7462 124.578 13.1042 124.931 13.358C125.287 13.6117 125.705 13.7386 126.186 13.7386C126.508 13.7386 126.8 13.6799 127.061 13.5625C127.327 13.4413 127.548 13.2689 127.726 13.0455C127.908 12.822 128.035 12.553 128.107 12.2386H129.76C129.7 12.803 129.516 13.3068 129.209 13.75C128.902 14.1932 128.491 14.5417 127.976 14.7955C127.465 15.0492 126.864 15.1761 126.175 15.1761ZM135.658 15.1761C134.799 15.1761 134.058 14.9924 133.437 14.625C132.819 14.2538 132.342 13.733 132.005 13.0625C131.672 12.3883 131.505 11.5985 131.505 10.6932C131.505 9.79924 131.672 9.01136 132.005 8.32955C132.342 7.64773 132.812 7.11553 133.414 6.73295C134.02 6.35038 134.728 6.15909 135.539 6.15909C136.032 6.15909 136.509 6.24053 136.971 6.40341C137.433 6.56629 137.848 6.82197 138.215 7.17045C138.583 7.51894 138.872 7.97159 139.085 8.52841C139.297 9.08144 139.403 9.75379 139.403 10.5455V11.1477H132.465V9.875H137.738C137.738 9.42803 137.647 9.0322 137.465 8.6875C137.283 8.33902 137.028 8.06439 136.698 7.86364C136.372 7.66288 135.99 7.5625 135.55 7.5625C135.073 7.5625 134.657 7.67992 134.3 7.91477C133.948 8.14583 133.675 8.44886 133.482 8.82386C133.293 9.19508 133.198 9.59848 133.198 10.0341V11.0284C133.198 11.6117 133.3 12.108 133.505 12.517C133.713 12.9261 134.003 13.2386 134.374 13.4545C134.746 13.6667 135.179 13.7727 135.675 13.7727C135.997 13.7727 136.291 13.7273 136.556 13.6364C136.821 13.5417 137.05 13.4015 137.244 13.2159C137.437 13.0303 137.585 12.8011 137.687 12.5284L139.295 12.8182C139.166 13.2917 138.935 13.7064 138.602 14.0625C138.272 14.4148 137.857 14.6894 137.357 14.8864C136.861 15.0795 136.295 15.1761 135.658 15.1761ZM148.147 8.40341L146.608 8.67614C146.543 8.47917 146.441 8.29167 146.301 8.11364C146.164 7.93561 145.979 7.78977 145.744 7.67614C145.509 7.5625 145.216 7.50568 144.863 7.50568C144.382 7.50568 143.981 7.61364 143.659 7.82955C143.337 8.04167 143.176 8.31629 143.176 8.65341C143.176 8.94508 143.284 9.17992 143.5 9.35795C143.716 9.53598 144.064 9.68182 144.545 9.79545L145.932 10.1136C146.735 10.2992 147.333 10.5852 147.727 10.9716C148.121 11.358 148.318 11.8598 148.318 12.4773C148.318 13 148.166 13.4659 147.863 13.875C147.564 14.2803 147.146 14.5985 146.608 14.8295C146.074 15.0606 145.454 15.1761 144.75 15.1761C143.772 15.1761 142.975 14.9678 142.358 14.5511C141.74 14.1307 141.361 13.5341 141.221 12.7614L142.863 12.5114C142.966 12.9394 143.176 13.2633 143.494 13.483C143.812 13.6989 144.227 13.8068 144.738 13.8068C145.295 13.8068 145.74 13.6913 146.074 13.4602C146.407 13.2254 146.574 12.9394 146.574 12.6023C146.574 12.3295 146.471 12.1004 146.267 11.9148C146.066 11.7292 145.757 11.589 145.341 11.4943L143.863 11.1705C143.049 10.9848 142.447 10.6894 142.057 10.2841C141.67 9.87879 141.477 9.36553 141.477 8.74432C141.477 8.22917 141.621 7.77841 141.909 7.39205C142.197 7.00568 142.594 6.70455 143.102 6.48864C143.61 6.26894 144.191 6.15909 144.846 6.15909C145.789 6.15909 146.532 6.36364 147.074 6.77273C147.615 7.17803 147.973 7.72159 148.147 8.40341Z" fill="#F22225"/>
<path d="M42.8868 9L40 6.11325L37.1132 9L40 11.8868L42.8868 9ZM0 9.5H40V8.5H0V9.5Z" fill="#F22225"/>
<circle cx="40" cy="9" r="3" fill="#F22225"/>
</svg>
