<svg width="60" height="60" viewBox="0 0 60 60" fill="none" xmlns="http://www.w3.org/2000/svg">
<circle cx="30" cy="30" r="30" fill="#F22225"/>
<path fill-rule="evenodd" clip-rule="evenodd" d="M23.5753 14.5102C25.237 14.4337 25.7668 14.4167 29.9998 14.4167C34.2328 14.4167 34.7627 14.4352 36.423 14.5102C38.0833 14.5853 39.2167 14.8502 40.2083 15.2342C41.2468 15.6266 42.1888 16.24 42.968 17.0333C43.7613 17.8111 44.3733 18.7517 44.7643 19.7916C45.1497 20.7832 45.4132 21.9166 45.4897 23.5741C45.5662 25.2387 45.5832 25.7685 45.5832 30.0001C45.5832 34.2331 45.5648 34.7629 45.4897 36.4247C45.4146 38.0822 45.1497 39.2155 44.7643 40.2072C44.3733 41.2471 43.7603 42.1894 42.968 42.9682C42.1888 43.7616 41.2468 44.3736 40.2083 44.7646C39.2167 45.1499 38.0833 45.4134 36.4258 45.4899C34.7627 45.5664 34.2328 45.5834 29.9998 45.5834C25.7668 45.5834 25.237 45.565 23.5753 45.4899C21.9178 45.4148 20.7844 45.1499 19.7928 44.7646C18.7528 44.3735 17.8106 43.7605 17.0317 42.9682C16.2389 42.19 15.6254 41.2483 15.2339 40.2086C14.85 39.2169 14.5865 38.0836 14.51 36.4261C14.4335 34.7615 14.4165 34.2317 14.4165 30.0001C14.4165 25.7671 14.4349 25.2372 14.51 23.5769C14.5851 21.9166 14.85 20.7832 15.2339 19.7916C15.6259 18.7519 16.2399 17.8101 17.0331 17.0319C17.8109 16.2393 18.7522 15.6258 19.7913 15.2342C20.783 14.8502 21.9163 14.5867 23.5738 14.5102H23.5753ZM36.2969 17.3152C34.6536 17.2402 34.1606 17.2246 29.9998 17.2246C25.8391 17.2246 25.3461 17.2402 23.7028 17.3152C22.1827 17.3847 21.3582 17.6382 20.8085 17.8522C20.0818 18.1355 19.5618 18.4712 19.0164 19.0167C18.4994 19.5197 18.1015 20.132 17.8519 20.8087C17.638 21.3584 17.3844 22.1829 17.315 23.703C17.2399 25.3463 17.2243 25.8393 17.2243 30.0001C17.2243 34.1608 17.2399 34.6538 17.315 36.2972C17.3844 37.8172 17.638 38.6417 17.8519 39.1914C18.1013 39.8672 18.4993 40.4806 19.0164 40.9835C19.5193 41.5006 20.1328 41.8987 20.8085 42.148C21.3582 42.3619 22.1827 42.6155 23.7028 42.6849C25.3461 42.76 25.8377 42.7756 29.9998 42.7756C34.162 42.7756 34.6536 42.76 36.2969 42.6849C37.817 42.6155 38.6415 42.3619 39.1912 42.148C39.9179 41.8647 40.4378 41.5289 40.9833 40.9835C41.5003 40.4806 41.8984 39.8672 42.1478 39.1914C42.3617 38.6417 42.6153 37.8172 42.6847 36.2972C42.7598 34.6538 42.7753 34.1608 42.7753 30.0001C42.7753 25.8393 42.7598 25.3463 42.6847 23.703C42.6153 22.1829 42.3617 21.3584 42.1478 20.8087C41.8644 20.082 41.5287 19.5621 40.9833 19.0167C40.4802 18.4997 39.8679 18.1018 39.1912 17.8522C38.6415 17.6382 37.817 17.3847 36.2969 17.3152V17.3152ZM28.0094 34.804C29.121 35.2667 30.3588 35.3292 31.5113 34.9807C32.6638 34.6322 33.6596 33.8944 34.3286 32.8933C34.9976 31.8921 35.2982 30.6898 35.1792 29.4916C35.0602 28.2935 34.5289 27.1738 33.6761 26.3238C33.1324 25.7805 32.4751 25.3645 31.7513 25.1057C31.0276 24.8469 30.2554 24.7518 29.4905 24.8273C28.7256 24.9027 27.987 25.1468 27.3277 25.542C26.6685 25.9372 26.1051 26.4736 25.678 27.1127C25.251 27.7518 24.9709 28.4776 24.8581 29.2379C24.7452 29.9981 24.8023 30.774 25.0253 31.5096C25.2482 32.2451 25.6315 32.9221 26.1475 33.4918C26.6635 34.0614 27.2994 34.5096 28.0094 34.804ZM24.336 24.3362C25.0798 23.5925 25.9628 23.0025 26.9346 22.5999C27.9064 22.1974 28.948 21.9902 29.9998 21.9902C31.0517 21.9902 32.0933 22.1974 33.0651 22.5999C34.0369 23.0025 34.9199 23.5925 35.6637 24.3362C36.4075 25.08 36.9975 25.963 37.4 26.9348C37.8025 27.9066 38.0097 28.9482 38.0097 30.0001C38.0097 31.052 37.8025 32.0935 37.4 33.0653C36.9975 34.0371 36.4075 34.9201 35.6637 35.6639C34.1615 37.1661 32.1242 38.01 29.9998 38.01C27.8755 38.01 25.8381 37.1661 24.336 35.6639C22.8339 34.1618 21.99 32.1244 21.99 30.0001C21.99 27.8757 22.8339 25.8384 24.336 24.3362V24.3362ZM39.7862 23.1831C39.9705 23.0092 40.118 22.8001 40.2201 22.5682C40.3222 22.3363 40.3767 22.0863 40.3803 21.8329C40.384 21.5795 40.3369 21.328 40.2416 21.0932C40.1463 20.8584 40.0049 20.6451 39.8258 20.466C39.6466 20.2868 39.4333 20.1454 39.1985 20.0501C38.9637 19.9549 38.7122 19.9077 38.4589 19.9114C38.2055 19.9151 37.9555 19.9696 37.7235 20.0717C37.4916 20.1737 37.2825 20.3213 37.1087 20.5056C36.7705 20.864 36.5854 21.3402 36.5926 21.8329C36.5998 22.3256 36.7987 22.7962 37.1471 23.1446C37.4956 23.4931 37.9661 23.692 38.4589 23.6992C38.9516 23.7064 39.4277 23.5212 39.7862 23.1831V23.1831Z" fill="white"/>
</svg>
