<svg width="60" height="60" viewBox="0 0 60 60" fill="none" xmlns="http://www.w3.org/2000/svg">
<circle cx="30" cy="30" r="30" fill="#F22225"/>
<path d="M42.3416 32.2113C42.4778 31.4643 42.5508 30.7006 42.5508 29.9369C42.5508 28.2436 42.2188 26.6 41.5647 25.0561C40.9338 23.5619 40.0274 22.2205 38.8752 21.0684C37.7327 19.9229 36.3783 19.0106 34.8875 18.3822C33.3403 17.7281 31.7 17.3961 30.0067 17.3961C29.2098 17.3961 28.4096 17.4725 27.6326 17.6219C26.5576 17.0522 25.3597 16.7536 24.143 16.752C22.1608 16.752 20.2947 17.5256 18.8936 18.9268C18.2022 19.6146 17.654 20.4327 17.2807 21.3338C16.9074 22.2348 16.7164 23.2009 16.7188 24.1762C16.7188 25.4379 17.0442 26.6797 17.6518 27.7754C17.5289 28.4859 17.4625 29.2131 17.4625 29.9369C17.4625 31.6303 17.7946 33.2738 18.4487 34.8178C19.0795 36.3119 19.9826 37.6533 21.1348 38.8055C22.2869 39.9576 23.6283 40.8607 25.1225 41.4916C26.6697 42.1457 28.31 42.4777 30.0033 42.4777C30.7405 42.4777 31.4776 42.4113 32.2014 42.2818C33.3137 42.9094 34.5688 43.2447 35.8537 43.2447C37.836 43.2447 39.702 42.4744 41.1031 41.0699C42.5076 39.6688 43.278 37.8027 43.278 35.8205C43.2813 34.5588 42.9559 33.3137 42.3416 32.2113ZM39.4164 39.3832C38.4635 40.3395 37.2051 40.8574 35.8571 40.8574C34.9905 40.8574 34.1371 40.6316 33.3801 40.2033L32.633 39.7816L31.7864 39.9311C31.1953 40.0373 30.5977 40.0904 30.0067 40.0904C28.6321 40.0904 27.3072 39.8215 26.0522 39.2902C24.8469 38.7822 23.7612 38.0518 22.8248 37.1154C21.8979 36.1917 21.1593 35.0968 20.65 33.8914C20.1188 32.6396 19.8531 31.3148 19.8531 29.9402C19.8531 29.3625 19.9063 28.7715 20.0059 28.1871L20.152 27.3537L19.7403 26.6133C19.325 25.8681 19.1067 25.0293 19.1061 24.1762C19.1061 22.8281 19.6274 21.5697 20.5803 20.6168C21.5365 19.6639 22.7949 19.1426 24.143 19.1426C24.9698 19.1448 25.7836 19.3488 26.5137 19.7369L27.2574 20.1287L28.0809 19.9693C28.7084 19.8498 29.3559 19.7867 30.0067 19.7867C31.3813 19.7867 32.7061 20.0557 33.9578 20.5836C35.1697 21.0949 36.2522 21.8254 37.1852 22.7584C38.1215 23.6914 38.852 24.7771 39.3633 25.9857C39.8946 27.2375 40.1602 28.5623 40.1602 29.9369C40.1602 30.5479 40.1037 31.1654 39.9908 31.7797L39.8348 32.6264L40.2531 33.3768C40.6715 34.1238 40.8906 34.9705 40.8906 35.8238C40.8906 37.1752 40.3694 38.4303 39.4164 39.3832V39.3832ZM32.3707 28.4793L29.4356 27.8285C28.3199 27.5729 27.035 27.2375 27.035 26.185C27.035 25.1324 27.9348 24.3953 29.5617 24.3953C32.8389 24.3953 32.5401 26.6465 34.167 26.6465C35.0237 26.6465 35.774 26.1418 35.774 25.2785C35.774 23.2598 32.5401 21.7424 29.7975 21.7424C26.8192 21.7424 23.6483 23.0074 23.6483 26.3742C23.6483 27.9945 24.226 29.7211 27.4201 30.5213L31.3846 31.5107C32.5832 31.8062 32.8854 32.4803 32.8854 33.0912C32.8854 34.1039 31.8793 35.0934 30.0565 35.0934C26.4971 35.0934 26.9918 32.3541 25.086 32.3541C24.2293 32.3541 23.6084 32.9451 23.6084 33.7852C23.6084 35.4254 25.6006 37.6168 30.0565 37.6168C34.2965 37.6168 36.3983 35.5748 36.3983 32.8355C36.3983 31.0725 35.5848 29.1965 32.3707 28.4793Z" fill="white"/>
</svg>
